<?xml version="1.0" standalone="no"?>
<!DOCTYPE svg PUBLIC "-//W3C//DTD SVG 1.1//EN" "http://www.w3.org/Graphics/SVG/1.1/DTD/svg11.dtd">
<svg xmlns="http://www.w3.org/2000/svg" width="3200" height="720" viewBox="0 0 3200 720" fill="none">
<path d="M903.334 512.631C857.885 512.631 823.412 491.364 807.633 459.464L841.935 434.938C854.283 456.548 877.265 468.897 903.848 468.897C934.891 468.897 958.387 453.976 958.387 432.88C958.387 407.326 922.028 391.89 889.785 377.998C857.37 363.592 821.354 346.784 821.354 303.393C821.354 258.116 860.629 226.558 910.366 226.558C949.812 226.558 979.311 245.596 990.63 275.952L958.387 298.248C949.812 279.554 930.775 269.092 910.709 269.092C885.326 269.092 865.088 284.87 865.088 304.422C865.088 326.032 890.642 333.75 924.258 348.156C967.992 367.365 1001.95 388.46 1001.95 432.023C1001.95 481.074 959.416 512.631 903.334 512.631ZM1141.21 513.145C1082.39 513.145 1036.77 466.667 1036.77 403.21V231.532H1080.33V403.038C1080.33 441.284 1107.25 469.24 1141.04 469.24C1174.83 469.24 1202.1 441.284 1202.1 403.038V231.532H1245.83V403.21C1245.83 466.667 1200.04 513.145 1141.21 513.145ZM1501.55 508H1448.21L1373.78 400.98H1339.82V508H1296.43L1296.25 231.532H1382.18C1433.63 231.532 1475.82 271.15 1475.82 320.372C1475.82 356.046 1452.84 387.088 1421.11 397.379L1501.55 508ZM1339.65 364.964H1383.21C1409.28 365.135 1431.06 344.04 1431.06 319.343C1431.06 293.617 1408.93 274.58 1383.21 274.58H1339.65V364.964ZM1792.25 357.075C1792.94 363.42 1793.45 370.967 1793.45 378.684C1793.45 460.836 1733.77 512.631 1661.91 512.631C1581.47 512.631 1517.67 448.487 1517.67 370.109C1517.67 291.559 1581.81 226.901 1660.36 226.901C1695.18 227.073 1734.97 243.881 1761.04 269.263L1736.85 305.28C1715.24 284.013 1686.09 270.635 1659.85 270.635C1609.42 270.635 1561.75 312.826 1561.75 370.109C1561.75 424.305 1604.79 468.897 1663.79 468.897C1711.3 468.897 1746.97 439.912 1746.97 397.722V396.864H1661.39V357.075H1792.25ZM2000.97 508L1982.11 465.981H1851.25L1832.38 508H1785.39L1915.39 225.872H1917.96L2047.97 508H2000.97ZM1868.06 428.764H1965.3L1916.76 320.715L1868.06 428.764ZM2354.79 231.532V274.58H2280.7V508H2237.14V274.58H2163.05V231.532H2354.79ZM2554.08 274.237H2432.83V345.069H2537.44V388.289H2432.83V464.78H2554.08V508H2389.43V231.532H2554.08V274.237ZM2729.53 512.459C2651.15 512.459 2586.15 447.973 2586.15 369.938C2586.15 292.074 2651.15 226.73 2728.85 226.73C2764.69 227.244 2797.79 242.508 2824.89 268.92L2799.68 303.05C2780.3 283.67 2755.09 270.807 2727.99 270.807C2677.91 270.807 2630.06 314.713 2630.06 370.109C2630.06 425.849 2678.59 468.897 2728.16 468.897C2756.46 468.897 2780.81 454.833 2799.85 435.967L2824.89 470.955C2801.05 494.451 2770.69 512.459 2729.53 512.459ZM3022.29 231.532H3065.68V508H3022.29V391.204H2902.58V508H2859.36V231.532H2902.58V348.156H3022.29V231.532Z" fill="black"/>
<path d="M703.744 343.113C706.472 344.49 708.178 347.301 708.139 350.357L708.013 360.127L709.6 483.552C709.914 507.991 696.494 530.54 674.863 541.917L558.158 603.298L439.892 669.061C420.249 679.984 396.357 679.984 376.714 669.061L349.208 653.766C343.699 650.702 343.732 642.767 349.267 639.75L552.405 529.008C553.694 528.306 554.838 527.441 555.827 526.454C556.11 526.171 556.403 525.899 556.706 525.636C558.135 524.396 559.352 522.863 560.257 521.069L576.927 488.037C580.659 480.641 577.689 471.62 570.293 467.887L231.999 297.166C226.138 294.208 226.138 285.84 231.999 282.882L404.592 195.783C406.858 194.639 409.533 194.639 411.8 195.783L703.744 343.113ZM140.805 328.903C145.821 326.371 152.22 330.106 156.538 333.702C157.397 334.417 158.35 335.048 159.391 335.573L461.437 488.001C467.194 490.906 467.324 499.08 461.662 502.167L271.081 606.064C268.673 607.377 265.761 607.365 263.364 606.032L258.448 603.298L141.743 541.917C120.112 530.54 106.691 507.991 107.005 483.552L108.593 360.127L108.466 350.25C108.427 347.194 110.132 344.382 112.861 343.005L140.805 328.903ZM422 286.001C415.372 286.001 410 291.373 410 298.001C410 304.628 415.372 310 422 310.001C428.627 310.001 434 304.628 434 298.001C433.999 291.373 428.627 286.001 422 286.001ZM394 286C387.372 286 382 291.372 382 298C382 304.627 387.372 309.999 394 310C400.627 310 406 304.627 406 298C405.999 291.372 400.627 286 394 286ZM394.001 258C387.374 258 382.002 263.372 382.001 270C382.001 276.627 387.374 282 394.001 282C400.629 281.999 406.001 276.627 406.001 270C406.001 263.372 400.629 258 394.001 258ZM422.001 258C415.374 258 410.002 263.372 410.001 270C410.001 276.627 415.374 281.999 422.001 282C428.629 282 434.001 276.627 434.001 270C434.001 263.372 428.629 258 422.001 258ZM376.714 51.192C396.357 40.2694 420.249 40.2693 439.892 51.192L558.158 116.956L674.863 178.337C696.494 189.714 709.914 212.263 709.6 236.702L709.326 257.987C709.25 263.901 703.004 267.691 697.723 265.026L415.065 122.382C413.216 121.449 411.265 120.935 409.321 120.804C408.956 120.78 408.592 120.769 408.229 120.771C407.855 120.773 407.483 120.789 407.112 120.819C405.491 120.95 403.904 121.344 402.416 121.979C401.796 122.195 401.184 122.454 400.583 122.757L118.881 264.918C113.6 267.583 107.353 263.794 107.277 257.879L107.005 236.702C106.691 212.264 120.112 189.714 141.743 178.337L258.448 116.956L376.714 51.192Z" fill="#008ADE"/>
</svg>